<svg width="64" height="64" viewBox="0 0 64 64" fill="none" xmlns="http://www.w3.org/2000/svg">
<path d="M53.6427 15.736C53.4261 15.4486 53.1946 15.1727 52.9493 14.9093C53.1961 14.2518 53.3835 13.5736 53.5093 12.8827C53.8808 10.3552 53.5582 7.77427 52.576 5.416C52.576 5.416 49.5893 4.48267 42.736 9.096C39.8264 8.29264 36.8211 7.88893 33.8027 7.896C30.7756 7.89069 27.7617 8.29434 24.8427 9.096C17.9893 4.42933 15.0027 5.416 15.0027 5.416C14.0322 7.74929 13.7098 10.3013 14.0693 12.8027C14.1959 13.5223 14.3924 14.2279 14.656 14.9093C14.416 15.176 14.176 15.4693 13.9627 15.736C11.9728 18.2321 10.9165 21.3444 10.976 24.536C10.9697 25.2929 11.0053 26.0497 11.0827 26.8027C11.936 38.616 19.8027 41.3627 27.296 42.216C26.2354 43.2022 25.5163 44.5005 25.2427 45.9227C24.9948 46.8712 24.8782 47.8492 24.896 48.8293V52.3227C21.912 52.5893 18.8507 52.1547 17.9013 49.4933C16.8823 46.9461 15.1922 44.7224 13.0107 43.0587C12.8512 42.9724 12.6995 42.8724 12.5573 42.76C12.3658 42.2566 12.0264 41.8228 11.5837 41.5159C11.1411 41.2089 10.616 41.043 10.0773 41.04H10.064C9.35906 41.04 8.68279 41.3191 8.18308 41.8163C7.68336 42.3135 7.40086 42.9884 7.39733 43.6933C7.38933 45.8587 9.55733 47.2587 10.4453 47.7333C11.4828 48.7787 12.3174 50.0075 12.9067 51.3573C13.8773 54.0853 16.7173 58.232 24.816 57.6933L24.8213 57.9547L24.832 58.6693C24.832 59.3766 25.1129 60.0549 25.613 60.555C26.1131 61.0551 26.7914 61.336 27.4987 61.336H40.0693C40.7766 61.336 41.4548 61.0551 41.9549 60.555C42.455 60.0549 42.736 59.3766 42.736 58.6693C42.736 58.6693 42.7573 50.2427 42.7573 48.8293C42.7751 47.8492 42.6585 46.8712 42.4107 45.9227L42.4053 45.9067L42.416 45.9227C42.392 45.8293 42.3573 45.7547 42.3307 45.664C42.0335 44.3428 41.346 43.1414 40.3573 42.216L40.3893 42.272L40.336 42.2187C47.8293 41.3653 55.6427 38.5653 56.496 26.8053C56.5734 26.0523 56.609 25.2956 56.6027 24.5387C56.65 21.3534 55.6054 18.2479 53.6427 15.7387V15.736Z" fill="black"/>
</svg>
