<svg width="64" height="65" viewBox="0 0 64 65" fill="none" xmlns="http://www.w3.org/2000/svg">
<rect x="22.6233" width="18.7535" height="19.0512" fill="black"/>
<rect x="22.6233" y="23.2186" width="18.7535" height="19.0512" fill="black"/>
<rect y="23.2186" width="18.7535" height="19.0512" fill="black"/>
<path d="M0 10.7163C0 4.79785 4.79784 0 10.7163 0H18.7535V19.0512H0V10.7163Z" fill="black"/>
<path d="M45.2465 0H53.2837C59.2022 0 64 4.79784 64 10.7163V19.0512H45.2465V0Z" fill="black"/>
<path d="M45.2465 23.2186H64V32.7442C64 38.005 59.7353 42.2698 54.4744 42.2698H45.2465V23.2186Z" fill="black"/>
<path d="M0 46.4372H18.7535V64.2977H11.907C5.33094 64.2977 0 58.9667 0 52.3907V46.4372Z" fill="black"/>
<path d="M22.6233 46.4372H41.3768V52.3907C41.3768 58.9667 36.0458 64.2977 29.4698 64.2977H22.6233V46.4372Z" fill="black"/>
</svg>
