<svg width="64" height="64" viewBox="0 0 64 64" fill="none" xmlns="http://www.w3.org/2000/svg">
<path d="M61.4142 19.4143L53.9885 26.8398C53.789 34.179 50.9877 41.3368 46.2332 46.5918C40.6642 52.7468 32.9762 56 24 56C15.272 56 10.773 51.6015 10.5857 51.4143C10.3299 51.1584 10.1482 50.838 10.0601 50.4871C9.972 50.1361 9.98073 49.7679 10.0854 49.4215C10.19 49.0752 10.3867 48.7637 10.6544 48.5203C10.9221 48.2769 11.2508 48.1106 11.6055 48.0393C13.74 47.6068 19.0382 45.923 21.293 42.888C18.8756 41.494 16.729 39.6761 14.956 37.5213C8.683 29.904 8.816 20.3313 10.0322 13.6423C10.1009 13.2646 10.2767 12.9148 10.5388 12.6343C10.8008 12.3539 11.138 12.1548 11.5101 12.0608C11.8822 11.9668 12.2735 11.9818 12.6373 12.1041C13.0011 12.2264 13.322 12.4508 13.5617 12.7505C13.6305 12.836 20.2037 20.8893 30 23.5205V22.0005C30.0211 18.7981 31.3131 15.7351 33.5918 13.4849C35.8706 11.2348 38.9496 9.98153 42.152 10.0008C44.2323 10.0295 46.2696 10.5974 48.0648 11.6489C49.8601 12.7004 51.3519 14.1996 52.3945 16H60C60.3956 16 60.7823 16.1173 61.1112 16.337C61.4401 16.5568 61.6964 16.8692 61.8478 17.2346C61.9992 17.6001 62.0388 18.0022 61.9616 18.3902C61.8845 18.7782 61.694 19.1345 61.4142 19.4143V19.4143Z" fill="black"/>
</svg>
